<?xml version="1.0" encoding="iso-8859-1"?>
<!-- Generator: Adobe Illustrator 19.0.0, SVG Export Plug-In . SVG Version: 6.00 Build 0)  -->
<svg version="1.1" id="Layer_1" xmlns="http://www.w3.org/2000/svg" xmlns:xlink="http://www.w3.org/1999/xlink" x="0px" y="0px"
	 viewBox="0 0 472.615 472.615" style="enable-background:new 0 0 472.615 472.615;" xml:space="preserve">
<g>
	<g>
		<path d="M0,0v206.736h68.923v-19.692h19.692v19.692h384V0H0z M187.077,180.678V55.533l108.308,62.621L187.077,180.678z"/>
	</g>
</g>
<g>
	<g>
		<path d="M472.615,275.692v-49.264h-384v19.692H68.923v-19.692H0v49.264h108.308v88.615H77.391
			c-4.431-16.935-19.692-29.538-38.006-29.538C17.625,334.769,0,352.394,0,374.154c0,21.663,17.625,39.385,39.385,39.385
			c18.314,0,33.575-12.601,38.006-29.538H128V275.692h49.231v119.533c-16.935,4.431-29.538,19.692-29.538,38.005
			c0,21.664,17.625,39.385,39.385,39.385s39.385-17.721,39.385-39.385c0-18.313-12.603-33.574-29.538-38.005V275.692h78.769v119.533
			c-16.935,4.431-29.538,19.692-29.538,38.005c0,21.664,17.625,39.385,39.385,39.385s39.385-17.721,39.385-39.385
			c0-18.313-12.603-33.574-29.538-38.005V275.692h49.231V384h50.609c4.431,16.937,19.692,29.538,38.006,29.538
			c21.76,0,39.385-17.721,39.385-39.385c0-21.76-17.625-39.385-39.385-39.385c-18.314,0-33.575,12.603-38.006,29.538h-30.917
			v-88.615H472.615z"/>
	</g>
</g>
<g>
</g>
<g>
</g>
<g>
</g>
<g>
</g>
<g>
</g>
<g>
</g>
<g>
</g>
<g>
</g>
<g>
</g>
<g>
</g>
<g>
</g>
<g>
</g>
<g>
</g>
<g>
</g>
<g>
</g>
</svg>
